HIERARCHY
ROOT Hips
{
	OFFSET	0.00	0.00	0.00
	CHANNELS 6 Xposition Yposition Zposition Zrotation Xrotation Yrotation
	JOINT Spine
	{
		OFFSET	 0.00	0.01	 0.00
		CHANNELS 3 Zrotation Xrotation Yrotation
		JOINT Spine1
		{
			OFFSET	 0.00	 2.45913012437421	 0.00
			CHANNELS 3 Zrotation Xrotation Yrotation
            JOINT Neck
            {
                OFFSET	 0.00	 2.48462964506057	 0.00
                CHANNELS 3 Zrotation Xrotation Yrotation
                JOINT Head
                {
                    OFFSET	 0.00	 0.927524780924562	 0.00
                    CHANNELS 3 Zrotation Xrotation Yrotation
                    End Site 
                    {
                        OFFSET	 0.00	 1.14999962169752	 0.00
                    }
                }
            }
			JOINT LeftShoulder
			{
				OFFSET	 0.00	 2.48462964506057	 0.00
				CHANNELS 3 Zrotation Xrotation Yrotation
				JOINT LeftUpArm
				{
					OFFSET	 0.00	 1.24881979654096	 0.00
					CHANNELS 3 Zrotation Xrotation Yrotation
					JOINT LeftForeArm
					{
						OFFSET	 0.00	2.59758046908119	 0.00
						CHANNELS 3 Zrotation Xrotation Yrotation
						JOINT LeftHand
						{
							OFFSET	 0.00	2.45542024364365	 0.00
							CHANNELS 3 Zrotation Xrotation Yrotation
							JOINT LeftHandThumb 
							{
								OFFSET	 0.00	0.00	 0.00
								CHANNELS 3 Zrotation Xrotation Yrotation
								End Site
								{
									OFFSET	 0.00	0.00	1.00000003353624
								}
							}
							JOINT L_Wrist_End 
							{
								OFFSET	 0.00	0.99999967115358	 0.00
								CHANNELS 3 Zrotation Xrotation Yrotation
								End Site 
								{
									OFFSET	 0.00	 0.00	 0.00
								}
							}
						}
					}
				}
			}
			JOINT RightShoulder
			{
				OFFSET	 0.00	 2.48462964506057	 0.00
				CHANNELS 3 Zrotation Xrotation Yrotation
				JOINT RightUpArm
				{
					OFFSET	 0.00	 1.24881979654096	 0.00
					CHANNELS 3 Zrotation Xrotation Yrotation
					JOINT RightForeArm
					{
						OFFSET	 0.00	2.59758046908119	 0.00
						CHANNELS 3 Zrotation Xrotation Yrotation
						JOINT RightHand
						{
							OFFSET	 0.00	2.45542024364365	 0.00
							CHANNELS 3 Zrotation Xrotation Yrotation
							JOINT RightHandThumb 
							{
								OFFSET	 0.00	0.00	 0.00
								CHANNELS 3 Zrotation Xrotation Yrotation
								End Site
								{
									OFFSET	 0.00	0.00	1.00000003353624
								}
							}
							JOINT R_Wrist_End 
							{
								OFFSET	 0.00	0.99999967115358	 0.00
								CHANNELS 3 Zrotation Xrotation Yrotation
								End Site 
								{
									OFFSET	 0.00	 0.00	 0.00
								}
							}
						}
					}
				}
			}
		}
	}
	JOINT LeftUpLeg
	{
		OFFSET	 1.2719394002717	 0.00	 0.00
		CHANNELS 3 Zrotation Xrotation Yrotation
		JOINT LeftLowLeg
		{
			OFFSET	 0.00	-4.3429100912261	 0.00
			CHANNELS 3 Zrotation Xrotation Yrotation
			JOINT LeftFoot
			{
				OFFSET	 0.00	-4.48767017425826	 0.00
				CHANNELS 3 Zrotation Xrotation Yrotation
				JOINT LeftToeBase
                {
                    OFFSET	 0.00	0.00	 1.51507020887566
                    CHANNELS 3 Zrotation Xrotation Yrotation
                    End Site 
                    {
                        OFFSET	 0.00	0.00	 0.75000010571191
                    }
                }
			}
		}
	}
	JOINT RightUpLeg
	{
		OFFSET	 -1.2719393604653	 0.00	 0.00
		CHANNELS 3 Zrotation Xrotation Yrotation
		JOINT RightLowLeg
		{
			OFFSET	 0.00	-4.3429100912261	 0.00
			CHANNELS 3 Zrotation Xrotation Yrotation
			JOINT RightFoot
			{
				OFFSET	 0.00	-4.48767017425826	 0.00
				CHANNELS 3 Zrotation Xrotation Yrotation
				JOINT RightToeBase
                {
                    OFFSET	 0.00	0.00	 1.51507020887566
                    CHANNELS 3 Zrotation Xrotation Yrotation
                    End Site 
                    {
                        OFFSET	 0.00	0.00	 0.749999965609858
                    }
                }   
			}
		}
	}
}
MOTION 
Frames:	19 
Frame Time: 0.02 
 7.567659912109375 16.696199951171874 10.750899658203124 -118.575 86.3463 77.7034 5.70348 -19.8945 -0.592723 1.52799 38.0873 -1.32419 -21.6099 43.7522 18.0673 12.0545 -50.387 15.4667 -119.8275 0.668842 -8.47804 -33.6 -0.0646691 31.5985 0.0 35.5065 0.0 7.04339 -7.5412 3.23693 0.0 0.0 0.0 0.0 0.0 0.0 117.064804 2.78125 2.78407 39.6454 8.43596 -8.2227 0.0 22.5228 0.0 -0.402837 -1.20976 9.50215 0.0 0.0 0.0 0.0 0.0 0.0 8.84249 0.788531 9.51344 0.0 13.6553 0.0 -10.2198 4.7812004 12.8991 0.0 -10.03685 0.0 9.72297 5.87765 12.3649 0.0 6.37865 0.0 15.255 7.0312 -24.6963 0.0 -9.39845 0.0 
  7.5556298828125 16.653599853515626 10.7502001953125 -119.656 86.2063 78.4547 5.33371 -20.3277 -1.0403 2.05796 37.8557 -1.36776 -21.2658 43.8338 17.4142 11.962 -50.308 15.0633 -119.9691 0.593992 -8.55431 -33.5882 0.0679015 31.8332 0.0 35.4971 0.0 7.00481 -7.58976 3.19202 0.0 0.0 0.0 0.0 0.0 0.0 117.0388 2.71304 2.40745 39.3752 8.83892 -8.02322 0.0 22.5831 0.0 -0.769204 -1.22869 10.2949 0.0 0.0 0.0 0.0 0.0 0.0 8.87644 2.2722 11.4771 0.0 11.2926 0.0 -9.6039 5.4833097 11.2928 0.0 -9.566401 0.0 9.72496 6.10398 12.6715 0.0 6.29558 0.0 15.3139 7.0738 -24.7033 0.0 -9.38032 0.0 
  7.54281982421875 16.603800048828123 10.753499755859375 -117.142 86.1804 75.5179 4.79134 -20.5832 -1.50307 2.7327 37.5882 -1.21618 -20.7647 44.2024 16.311 11.8582 -50.3731 14.5401 -120.3433 0.740512 -8.47713 -33.4479 0.12603 32.1538 0.0 35.4359 0.0 7.06785 -7.63137 2.76079 0.0 0.0 0.0 0.0 0.0 0.0 116.7724 2.64221 2.55487 39.3611 8.64362 -7.8584 0.0 22.6643 0.0 -1.0063 -1.07187 10.1664 0.0 0.0 0.0 0.0 0.0 0.0 8.73326 3.70009 12.8477 0.0 9.56219 0.0 -9.7477 6.1021404 9.8175 0.0 -9.63517 0.0 9.5282 6.58008 12.9586 0.0 6.19431 0.0 15.3658 7.13554 -24.6411 0.0 -9.37356 0.0 
  7.534749755859375 16.561400146484374 10.755999755859374 -119.549 86.2759 77.7277 3.70566 -20.8032 -2.53325 4.17886 36.8412 -1.01295 -21.7616 44.6515 16.9692 11.785 -50.6996 13.4377 -121.2841 0.901152 -8.22648 -33.1611 0.187745 32.2876 0.0 35.3002 0.0 6.92175 -7.63884 2.37537 0.0 0.0 0.0 0.0 0.0 0.0 116.172195 2.1042 2.3156 39.332 8.99533 -7.76967 0.0 22.6109 0.0 -1.31607 -1.1103 10.4553 0.0 0.0 0.0 0.0 0.0 0.0 8.53418 4.43737 12.76 0.0 8.3027 0.0 -10.2825 6.4818296 9.47267 0.0 -9.74301 0.0 9.31391 6.65022 12.9572 0.0 6.11729 0.0 15.3715 7.16771 -24.485 0.0 -9.282471 0.0 
  7.52760986328125 16.521400146484375 10.7597998046875 -119.723 86.2929 77.7004 3.1846 -21.0138 -3.05845 4.67522 36.4004 -1.01606 -20.7511 45.0403 15.2417 11.6504 -50.8363 13.2094 -121.5206 0.946851 -8.15297 -33.0841 0.212576 32.2306 0.0 35.1852 0.0 6.97584 -7.60114 2.26746 0.0 0.0 0.0 0.0 0.0 0.0 115.8945 1.98032 2.32227 39.6224 9.0386 -7.62219 0.0 22.547 0.0 -1.49302 -1.15865 10.4414 0.0 0.0 0.0 0.0 0.0 0.0 8.42686 5.20682 14.1582 0.0 7.28021 0.0 -10.2442 7.09071 8.05128 0.0 -9.94353 0.0 9.14776 6.85295 12.8601 0.0 6.03278 0.0 15.4023 7.2823 -24.3264 0.0 -9.26462 0.0 
  7.524739990234375 16.480799560546874 10.761700439453126 -120.481 86.2929 78.3065 3.15729 -21.1777 -3.13557 4.43508 35.8565 -1.1121 -19.7866 45.4044 13.8742 12.0856 -50.9699 13.5207 -121.4203 0.951514 -7.96527 -32.9342 0.258954 32.0144 0.0 35.1908 0.0 7.06823 -7.66795 2.27324 0.0 0.0 0.0 0.0 0.0 0.0 116.0318 1.8704 2.29519 39.8989 9.03065 -7.51652 0.0 22.5001 0.0 -1.47472 -1.10277 10.2953 0.0 0.0 0.0 0.0 0.0 0.0 8.22201 5.91439 15.9074 0.0 6.21232 0.0 -9.92093 7.63624 6.6488 0.0 -9.90866 0.0 9.0134 6.96405 12.8865 0.0 6.06256 0.0 15.4412 7.27846 -24.2977 0.0 -9.11242 0.0 
  7.524829711914062 16.440999755859377 10.761700439453126 -120.049 86.1817 77.6184 3.43276 -21.153 -2.94483 3.94675 35.2349 -1.20823 -18.7631 45.7824 12.5065 12.6845 -51.204 14.0732 -121.2301 0.959198 -7.78323 -32.7504 0.228857 31.7318 0.0 35.2783 0.0 7.15627 -7.83031 2.28291 0.0 0.0 0.0 0.0 0.0 0.0 116.3363 1.76627 2.13553 40.1084 9.00639 -7.32571 0.0 22.5609 0.0 -1.29984 -1.03061 10.0875 0.0 0.0 0.0 0.0 0.0 0.0 8.01893 6.68611 17.5645 0.0 5.21971 0.0 -9.50551 7.97927 5.61961 0.0 -9.84955 0.0 8.94592 7.1174 12.8992 0.0 6.16835 0.0 15.479 7.27245 -24.1838 0.0 -8.94543 0.0 
  7.528289794921875 16.401800537109374 10.760999755859375 -120.877 86.0536 78.1331 3.97284 -21.3631 -2.5535 3.15979 35.0332 -1.41806 -17.6921 45.6896 11.3073 13.2242 -51.2586 14.5693 -120.7464 0.952229 -7.96841 -32.75 0.0732342 31.5053 0.0 35.4525 0.0 7.37728 -7.86809 2.51476 0.0 0.0 0.0 0.0 0.0 0.0 116.6121 1.83282 2.15556 40.482 8.94169 -7.30806 0.0 22.6817 0.0 -1.04334 -0.973457 9.85527 0.0 0.0 0.0 0.0 0.0 0.0 7.78933 7.32785 18.6373 0.0 4.31298 0.0 -9.17951 8.14682 5.18878 0.0 -9.63879 0.0 8.90312 7.14656 13.0841 0.0 6.35443 0.0 15.6016 7.2076 -24.1259 0.0 -8.84385 0.0 
  7.531849975585938 16.36260009765625 10.759599609375 -120.039 85.9176 76.9205 4.55099 -21.4158 -2.05821 2.33587 34.8209 -1.54161 -16.4996 45.6532 9.9341 13.8237 -51.3675 15.1821 -120.2922 0.916115 -7.93267 -32.7161 0.0991607 31.1867 0.0 35.6171 0.0 7.54637 -7.87966 2.66678 0.0 0.0 0.0 0.0 0.0 0.0 117.0651 1.78093 2.09395 40.6135 8.87209 -7.51039 0.0 22.9519 0.0 -0.797749 -0.882024 10.0707 0.0 0.0 0.0 0.0 0.0 0.0 7.5579 8.01736 19.0416 0.0 3.58149 0.0 -9.0252 8.176929 5.27134 0.0 -9.54945 0.0 8.83511 7.29503 13.3425 0.0 6.53477 0.0 15.6038 7.18713 -24.095 0.0 -8.894091 0.0 
  7.537150268554687 16.323299560546875 10.758699951171875 -119.642 85.8223 76.1552 5.01741 -21.5369 -1.66889 1.69793 34.7697 -1.65112 -15.5798 45.4684 8.88579 14.3187 -51.4712 15.4986 -119.9437 0.864315 -7.9815 -32.7371 0.144166 30.9425 0.0 35.7663 0.0 7.70967 -7.92456 2.73789 0.0 0.0 0.0 0.0 0.0 0.0 117.4219 1.74765 2.05331 40.6901 8.84516 -7.80386 0.0 23.1794 0.0 -0.583656 -0.790647 10.2273 0.0 0.0 0.0 0.0 0.0 0.0 7.32207 8.5981 19.1287 0.0 2.99566 0.0 -9.01776 8.16341 5.52685 0.0 -9.54058 0.0 8.71056 7.42199 13.5343 0.0 6.66123 0.0 15.5891 7.25015 -23.9882 0.0 -9.10703 0.0 
  7.542860107421875 16.284200439453127 10.7581005859375 -119.389 85.7868 75.5506 5.26142 -21.6612 -1.47074 1.33747 34.7075 -1.7216 -14.8961 45.382 8.02312 14.7011 -51.6273 15.6164 -119.7471 0.834713 -7.99187 -32.7971 0.136514 30.6643 0.0 35.8984 0.0 8.006 -7.86982 2.83221 0.0 0.0 0.0 0.0 0.0 0.0 117.6696 1.75658 2.00069 40.679 8.72805 -8.12346 0.0 23.3959 0.0 -0.372945 -0.590193 10.3562 0.0 0.0 0.0 0.0 0.0 0.0 7.0366 9.14225 19.0966 0.0 2.4189 0.0 -9.04461 8.2107 5.82928 0.0 -9.59388 0.0 8.51602 7.56205 13.6953 0.0 6.72073 0.0 15.7337 7.14236 -23.7691 0.0 -9.02742 0.0 
  7.548460083007813 16.246700439453125 10.75719970703125 -119.705 85.7585 75.5344 5.38761 -21.8337 -1.38695 1.15822 34.7004 -1.77507 -14.2211 45.2451 7.13168 14.9626 -51.7324 15.5929 -119.534 0.775232 -8.13094 -33.0073 0.0817608 30.5435 0.0 35.9991 0.0 8.1943 -7.92125 2.74849 0.0 0.0 0.0 0.0 0.0 0.0 117.792 1.71655 2.00707 40.7196 8.67486 -8.50198 0.0 23.4616 0.0 -0.152998 -0.473513 10.0665 0.0 0.0 0.0 0.0 0.0 0.0 6.77828 9.58626 19.231 0.0 1.94557 0.0 -9.05731 8.22857 5.96173 0.0 -9.65781 0.0 8.31795 7.68482 13.7772 0.0 6.70893 0.0 15.8269 7.11674 -23.5206 0.0 -9.02022 0.0 
  7.553720092773437 16.211400146484376 10.756099853515625 -119.841 85.7478 75.3965 5.30201 -21.9097 -1.5191 1.22096 34.5705 -1.84646 -13.8156 45.2247 6.49418 15.1976 -51.9326 15.4125 -119.473 0.677078 -8.26988 -33.1899 -0.0863789 30.4999 0.0 36.0908 0.0 8.77729 -6.8268 -0.0325914 0.0 0.0 0.0 0.0 0.0 0.0 117.851 1.68638 1.97233 40.7007 8.61561 -8.87566 0.0 23.4139 0.0 0.0672965 -0.331596 9.96428 0.0 0.0 0.0 0.0 0.0 0.0 6.52212 9.96273 19.1424 0.0 1.58824 0.0 -9.10569 8.158 6.26469 0.0 -9.6264 0.0 8.10139 7.84121 13.7967 0.0 6.63624 0.0 15.9189 7.1125 -23.2391 0.0 -9.05442 0.0 
  7.560239868164063 16.18 10.75489990234375 -120.516 85.7702 75.918 5.0222 -21.933 -1.84278 1.45735 34.3248 -1.93879 -13.4933 45.2836 5.90815 15.4465 -52.1533 15.1277 -119.5638 0.59766 -8.33862 -33.2867 -0.260604 30.4877 0.0 36.1934 0.0 8.68127 -7.98124 2.8055 0.0 0.0 0.0 0.0 0.0 0.0 117.895004 1.6668 1.9589 40.6409 8.52296 -9.18275 0.0 23.2486 0.0 0.276154 -0.332268 9.48731 0.0 0.0 0.0 0.0 0.0 0.0 6.3179 10.0975 19.0506 0.0 1.52434 0.0 -9.07915 8.00189 6.47382 0.0 -9.59174 0.0 7.88137 7.95256 13.7639 0.0 6.51534 0.0 16.0038 7.10091 -22.9831 0.0 -9.06458 0.0 
  7.568380126953125 16.148499755859376 10.75469970703125 -121.491 85.7831 76.7314 4.67961 -21.9343 -2.24047 1.8406 34.1004 -2.02191 -13.2793 45.255 5.4393 15.6982 -52.4107 14.6508 -119.7342 0.477064 -8.43822 -33.3992 -0.464297 30.5027 0.0 36.2407 0.0 8.75645 -6.74463 0.387475 0.0 0.0 0.0 0.0 0.0 0.0 117.821304 1.62485 1.99626 40.6315 8.41857 -9.38688 0.0 22.9914 0.0 0.468706 -0.302386 9.05869 0.0 0.0 0.0 0.0 0.0 0.0 6.15713 10.1057 19.1187 0.0 1.66893 0.0 -9.03389 7.80696 6.51949 0.0 -9.67387 0.0 7.67689 8.03544 13.9677 0.0 6.40368 0.0 16.1319 7.06591 -22.9266 0.0 -9.04958 0.0 
  7.577000122070313 16.1156005859375 10.754200439453125 -123.546 85.8122 78.6269 4.42444 -21.9707 -2.52131 2.06863 33.7945 -2.0719 -12.7152 45.4055 4.5038 16.0361 -52.7312 14.5005 -119.8893 0.39897 -8.37938 -33.4667 -0.625598 30.4366 0.0 36.278 0.0 8.54652 -7.53224 2.20121 0.0 0.0 0.0 0.0 0.0 0.0 117.7964 1.51434 2.01021 40.6714 8.2863 -9.506 0.0 22.658 0.0 0.643498 -0.385994 8.58878 0.0 0.0 0.0 0.0 0.0 0.0 6.02948 9.94405 19.4432 0.0 2.02281 0.0 -8.92195 7.54754 6.27428 0.0 -9.75366 0.0 7.46543 8.06644 14.2189 0.0 6.22896 0.0 16.1978 7.06812 -22.9585 0.0 -9.02761 0.0 
  7.5934600830078125 16.080899658203126 10.753599853515626 -125.488 85.8266 80.5382 4.458 -21.9547 -2.56545 1.8557 33.52 -2.22381 -11.5963 45.4602 3.00671 16.6238 -52.9944 14.8089 -119.8415 0.399049 -8.44132 -33.5203 -0.879132 30.3806 0.0 36.1987 0.0 7.94653 -7.98141 1.81877 0.0 0.0 0.0 0.0 0.0 0.0 117.9483 1.43419 2.11618 40.7654 8.06629 -9.47924 0.0 22.2967 0.0 0.814234 -0.461874 8.28224 0.0 0.0 0.0 0.0 0.0 0.0 5.93091 9.58437 19.4023 0.0 2.68539 0.0 -8.77593 7.10436 6.30519 0.0 -9.81196 0.0 7.23833 8.06168 14.3141 0.0 6.11773 0.0 16.3766 7.00821 -22.9146 0.0 -9.03977 0.0 
  7.612310180664062 16.046099853515624 10.752900390625 -127.67 85.7897 82.6852 4.55802 -21.8836 -2.59117 1.6518 33.1795 -2.40563 -9.76096 45.5966 0.422644 17.0957 -53.301 15.2001 -119.7551 0.368285 -8.50364 -33.6096 -1.18563 30.4792 0.0 36.1461 0.0 8.14118 -6.51835 0.30994 0.0 0.0 0.0 0.0 0.0 0.0 118.0684 1.38134 2.14752 40.854 7.81728 -9.37035 0.0 21.9064 0.0 0.86286 -0.537416 8.03844 0.0 0.0 0.0 0.0 0.0 0.0 5.87301 9.10538 19.1297 0.0 3.52431 0.0 -8.60729 6.54138 6.66593 0.0 -9.88031 0.0 7.07132 7.99905 14.5502 0.0 6.07502 0.0 16.5869 6.9138203 -22.995 0.0 -8.978741 0.0 
  7.63281005859375 16.01 10.75219970703125 -129.879 85.7163 84.7216 4.73306 -21.7326 -2.41623 1.45977 32.8838 -2.38713 -8.20876 45.6353 -1.68954 17.7768 -53.713 15.7179 -119.7333 0.499051 -8.42552 -33.6332 -1.34416 30.5804 0.0 36.0004 0.0 7.7592 -6.38142 0.229959 0.0 0.0 0.0 0.0 0.0 0.0 118.208 1.0325 2.26949 40.8901 7.65741 -9.24991 0.0 21.5342 0.0 0.96546 -0.642226 7.92106 0.0 0.0 0.0 0.0 0.0 0.0 5.7417 8.78306 18.7652 0.0 4.08727 0.0 -8.42468 6.0296 7.33309 0.0 -9.85328 0.0 6.92943 7.85433 14.8773 0.0 6.17381 0.0 16.7503 6.85954 -23.1125 0.0 -9.112249 0.0 
